<svg xmlns="http://www.w3.org/2000/svg" viewBox="0 0 32 32" fill="none">
  <rect width="32" height="32" rx="8" fill="#3b82f6"/>
  <path d="M9 20V10a1 1 0 011-1h7a1 1 0 011 1v10a1 1 0 01-1 1h-1m-7-1a1 1 0 001 1h1m5-1V12a1 1 0 011-1h1.586a1 1 0 01.707.293l2.414 2.414a1 1 0 01.293.707V20a1 1 0 01-1 1h-1m-4-1a1 1 0 001 1h1" stroke="white" stroke-width="1.5" stroke-linecap="round" stroke-linejoin="round"/>
  <circle cx="12" cy="21" r="2" stroke="white" stroke-width="1.5"/>
  <circle cx="21" cy="21" r="2" stroke="white" stroke-width="1.5"/>
</svg>
